<svg id="Layer_1" xmlns="http://www.w3.org/2000/svg" viewBox="0 0 16 16"><style>.st0{fill:#010101;}</style><title>ua-logo</title><g id="g3"><path id="path5" class="st0" d="M13 8.2c1.7-.8 2.9-1.9 3-3.2-.6-.4-1.3-.7-1.9-.9-.7-.3-1.5-.5-2.3-.6v2.9c0 .5-.2.9-.5 1.2-1.2-.2-2.2-.4-3.3-.4-1.1 0-2.2.1-3.2.4-.4-.3-.5-.8-.5-1.2V3.5c-.8.1-1.6.3-2.4.6-.6.2-1.3.5-1.9.9.1 1.3 1.3 2.4 3 3.2-1.7.8-2.9 1.9-3 3.2.6.4 1.3.7 1.9.9.7.3 1.5.5 2.3.6V10c0-.5.2-.9.5-1.2 1.2.3 2.2.4 3.3.4 1.1 0 2.1-.1 3.2-.4.3.3.5.8.5 1.2v2.9c.8-.1 1.6-.3 2.3-.6.7-.2 1.3-.5 1.9-.9 0-1.3-1.2-2.4-2.9-3.2zm-5 .7c-.9 0-1.7-.2-2.5-.6.8-.5 1.7-.8 2.5-.7h.1c.9 0 1.7.2 2.5.6-.8.5-1.6.7-2.6.7z"/></g></svg>