<svg width="50" height="50" viewBox="0 0 50 50" xmlns="http://www.w3.org/2000/svg" xmlns:xlink="http://www.w3.org/1999/xlink"><title>icon_mmrun</title><defs><path d="M17.432 0h15.136c5.02 0 7.53 0 10.23.854a10.62 10.62 0 0 1 6.348 6.347C50 9.903 50 12.413 50 17.431v15.137c0 5.02 0 7.529-.854 10.23a10.62 10.62 0 0 1-6.347 6.348C40.097 50 37.587 50 32.568 50H17.432c-5.02 0-7.529 0-10.23-.854a10.62 10.62 0 0 1-6.348-6.347C0 40.097 0 37.587 0 32.568V17.432c0-5.02 0-7.53.854-10.23A10.62 10.62 0 0 1 7.201.853C9.903 0 12.413 0 17.432 0" id="a"/><linearGradient x1="100%" y1="100%" x2="0%" y2="0%" id="b"><stop stop-color="#6C73F2" offset="0%"/><stop stop-color="#7C6CF2" offset="100%"/></linearGradient><path id="c" d="M0 0h50v50H0z"/><radialGradient cx="93.407%" cy="4.944%" fx="93.407%" fy="4.944%" r="118.837%" id="e"><stop stop-color="#21C3FA" offset="0%"/><stop stop-color="#0076C0" offset="100%"/></radialGradient></defs><g fill="none" fill-rule="evenodd"><use fill="#000" xlink:href="#a"/><path fill="url(#b)" d="M0 0h50v50H0z"/><mask id="d" fill="#fff"><use xlink:href="#c"/></mask><path d="M34.48 44.363a21.667 21.667 0 0 0 5.686-4.05l6.25 6.25H34.482v-2.2zm-9.374 2.2v-.002a21.428 21.428 0 0 0 9.166-2.095v2.098h-9.166zm-9.375 0v-2.097a21.428 21.428 0 0 0 9.166 2.095v.003h-9.166zm-12.145 0l6.25-6.25a21.673 21.673 0 0 0 5.686 4.05v2.2H3.586zM5.64 34.482a21.667 21.667 0 0 0 4.05 5.685l-6.251 6.25V34.482h2.2zm-2.201-9.375h.002a21.427 21.427 0 0 0 2.096 9.166H3.44v-9.166zm0-9.375h2.098a21.428 21.428 0 0 0-2.096 9.166H3.44v-9.166zm0-12.145l6.25 6.25a21.673 21.673 0 0 0-4.05 5.686h-2.2V3.586zM15.522 5.64a21.673 21.673 0 0 0-5.685 4.05l-6.25-6.251h11.935v2.2zm9.375-2.201v.002a21.434 21.434 0 0 0-9.166 2.096V3.44h9.166zm9.375 0v2.098a21.434 21.434 0 0 0-9.166-2.096V3.44h9.166zm12.145 0l-6.251 6.25a21.667 21.667 0 0 0-5.685-4.05v-2.2h11.936zm-2.054 12.083a21.662 21.662 0 0 0-4.05-5.685l6.251-6.25v11.935h-2.2zm2.201 9.375h-.003a21.428 21.428 0 0 0-2.095-9.166h2.098v9.166zm0 9.375h-2.098a21.427 21.427 0 0 0 2.095-9.166h.003v9.166zm-11.936.209h9.501a21.44 21.44 0 0 1-3.963 5.538l-5.538-5.538zm-.147.147l5.538 5.538a21.458 21.458 0 0 1-5.538 3.963v-9.501zm-9.375 3.808a13.387 13.387 0 0 0 9.166-3.721v9.521a21.224 21.224 0 0 1-9.166 2.117v-7.917zm-9.375-3.721a13.387 13.387 0 0 0 9.166 3.721v7.917a21.224 21.224 0 0 1-9.166-2.117v-9.521zm-.209-.087v9.5a21.456 21.456 0 0 1-5.538-3.962l5.538-5.538zm-.147-.147l-5.538 5.538a21.45 21.45 0 0 1-3.963-5.538h9.501zm-3.809-9.375a13.387 13.387 0 0 0 3.722 9.166H5.767a21.224 21.224 0 0 1-2.117-9.166h7.916zm3.722-9.375a13.387 13.387 0 0 0-3.722 9.166H3.65c.016-3.281.774-6.39 2.117-9.166h9.521zm.087-.209H5.874a21.456 21.456 0 0 1 3.963-5.538l5.538 5.538zm.147-.147L9.984 9.837a21.456 21.456 0 0 1 5.538-3.963v9.5zm9.375-3.809a13.387 13.387 0 0 0-9.166 3.722v-9.52a21.218 21.218 0 0 1 9.166-2.118v7.916zm9.375 3.722a13.387 13.387 0 0 0-9.166-3.722V3.65c3.281.016 6.39.773 9.166 2.117v9.521zm.209.087V5.874a21.458 21.458 0 0 1 5.538 3.963l-5.538 5.538zm.147.147l5.538-5.538a21.456 21.456 0 0 1 3.963 5.538h-9.5zm3.808 9.375a13.385 13.385 0 0 0-3.721-9.166h9.521a21.224 21.224 0 0 1 2.117 9.166h-7.917zm0 .209h7.917a21.224 21.224 0 0 1-2.117 9.166h-9.521a13.385 13.385 0 0 0 3.721-9.166zm-13.33 9.375h9.11a13.18 13.18 0 0 1-9.11 3.747v-3.747zm-.209 0v3.747a13.18 13.18 0 0 1-9.11-3.747h9.11zm-9.375-9.375v9.11a13.183 13.183 0 0 1-3.747-9.11h3.747zm0-.209h-3.747a13.183 13.183 0 0 1 3.747-9.11v9.11zm9.375-9.375h-9.11a13.183 13.183 0 0 1 9.11-3.747v3.747zm.209 0v-3.747a13.183 13.183 0 0 1 9.11 3.747h-9.11zm9.375 9.375v-9.11a13.18 13.18 0 0 1 3.747 9.11h-3.747zm0 .209h3.747a13.182 13.182 0 0 1-3.747 9.11v-9.11zm-9.375.147l9.02 9.02h-9.02v-9.02zm-.209 0v9.02h-9.019l9.02-9.02zm-.147-.147l-9.02 9.02v-9.02h9.02zm0-.209h-9.02v-9.02l9.02 9.02zm.147-.147l-9.019-9.02h9.02v9.02zm.209 0v-9.02h9.02l-9.02 9.02zm9.166.356v9.019l-9.019-9.02h9.02zm-9.019-.209l9.02-9.019v9.02h-9.02zm21.311 21.52l-6.25-6.251a21.656 21.656 0 0 0 4.05-5.685h2.2v11.936zm4.002 4.001l-3.646-3.646h3.186v-.208h-3.334V34.48h3.334v-.209h-3.334v-9.166h3.334v-.209h-3.334v-9.166h3.334v-.209h-3.334V3.44h3.334V3.23H46.92L50.149 0l-.148-.147-3.229 3.23V-.103h-.208v3.334H34.481V-.103h-.209v3.334h-9.166V-.103h-.209v3.334h-9.166V-.103h-.209v3.334H3.44V-.103h-.208v3.187L0-.147l-.147.147 3.23 3.23H-.103v.208h3.334v12.083H-.103v.209h3.334v9.166H-.103v.209h3.334v9.166H-.103v.209h3.334v12.083H-.103v.208h3.187l-3.23 3.23.147.147 3.23-3.23v3.187h.208v-3.334h12.083v3.334h.209v-3.334h9.166v3.334h.209v-3.334h9.166v3.334h.209v-3.334h12.083v3.334h.208V46.92l3.646 3.646.148-.148z" fill="#FFF" opacity=".5" mask="url(#d)"/><g><path fill="url(#e)" d="M0 0h50v50H0z"/><path d="M18.36 39.6l-.622-1.64h-.342v1.64h-1.285v-4.878h1.732c.559 0 .993.14 1.303.417.31.278.464.667.464 1.168a1.536 1.536 0 0 1-.67 1.284l.845 2.008H18.36zm-.594-2.699c.182 0 .32-.049.416-.147.095-.098.143-.238.143-.42 0-.177-.047-.314-.14-.41-.093-.095-.228-.143-.405-.143h-.384v1.12h.37zm7.562-2.179h1.369v3.033c0 .642-.157 1.13-.471 1.465-.315.335-.772.502-1.373.502-.6 0-1.058-.167-1.372-.502-.314-.335-.472-.823-.472-1.465v-3.033h1.37v3.135c0 .228.037.394.111.5.075.104.196.156.363.156.168 0 .289-.052.363-.157.075-.105.112-.27.112-.499v-3.135zm7.38 4.877l-1.2-2.452V39.6H30.25v-4.877h1.215l1.201 2.452v-2.452h1.258V39.6h-1.216z" fill="#FFF"/><path d="M24.997 20.604h-.003l-.06-.002c-1.92 0-3.484-.47-4.63-1.189 1.146-.72 2.712-1.19 4.634-1.19l.06-.001h.063c1.919 0 3.483.471 4.63 1.19-1.147.719-2.712 1.19-4.634 1.19l-.06.002zm9.318-1.192c3.24-1.427 5.356-3.569 5.471-5.945 0 0-.855-.66-3.617-1.677-2.426-.892-4.276-1.097-4.276-1.097l.008 5.296c0 .79-.317 1.598-.916 2.313A25.634 25.634 0 0 0 25 17.61h-.002c-2.127 0-4.155.25-5.99.693-.6-.714-.918-1.523-.918-2.314l.008-5.296s-1.85.205-4.276 1.097c-2.763 1.018-3.617 1.677-3.617 1.677.115 2.377 2.232 4.52 5.476 5.946-3.241 1.427-5.357 3.569-5.473 5.945 0 0 .856.66 3.617 1.676 2.427.893 4.277 1.098 4.277 1.098l-.008-5.295c0-.792.317-1.6.916-2.314 1.834.444 3.86.692 5.985.692h.001c2.128 0 4.156-.25 5.991-.694.6.715.917 1.524.917 2.316l-.007 5.295s1.85-.205 4.276-1.098c2.762-1.016 3.617-1.676 3.617-1.676-.115-2.377-2.232-4.52-5.475-5.946z" fill="#FEFEFE"/></g></g></svg>